<?xml version="1.0" encoding="UTF-8" standalone="no"?>
<svg
   xmlns:dc="http://purl.org/dc/elements/1.1/"
   xmlns:cc="http://creativecommons.org/ns#"
   xmlns:rdf="http://www.w3.org/1999/02/22-rdf-syntax-ns#"
   xmlns:svg="http://www.w3.org/2000/svg"
   xmlns="http://www.w3.org/2000/svg"
   xmlns:sodipodi="http://sodipodi.sourceforge.net/DTD/sodipodi-0.dtd"
   xmlns:inkscape="http://www.inkscape.org/namespaces/inkscape"
   version="1.1"
   id="svg939"
   width="594.26947"
   height="594.29608"
   viewBox="0 0 594.26947 594.29609"
   sodipodi:docname="icon.svg"
   inkscape:version="1.0.2 (e86c870879, 2021-01-15)">
  <metadata
     id="metadata945">
    <rdf:RDF>
      <cc:Work
         rdf:about="">
        <dc:format>image/svg+xml</dc:format>
        <dc:type
           rdf:resource="http://purl.org/dc/dcmitype/StillImage" />
        <dc:title></dc:title>
      </cc:Work>
    </rdf:RDF>
  </metadata>
  <defs
     id="defs943">
    <inkscape:path-effect
       effect="mirror_symmetry"
       start_point="960,243.36914"
       end_point="960,784.94141"
       center_point="960,514.15527"
       id="path-effect2098"
       is_visible="true"
       lpeversion="1"
       mode="free"
       discard_orig_path="false"
       fuse_paths="false"
       oposite_fuse="false"
       split_items="false" />
    <marker
       style="overflow:visible"
       id="Arrow1Lstart"
       refX="0"
       refY="0"
       orient="auto"
       inkscape:stockid="Arrow1Lstart"
       inkscape:isstock="true">
      <path
         transform="matrix(0.8,0,0,0.8,10,0)"
         style="fill:none;fill-opacity:1;fill-rule:evenodd;stroke:#000000;stroke-width:1pt;stroke-opacity:1"
         d="M 0,0 5,-5 -12.5,0 5,5 Z"
         id="path1802" />
    </marker>
    <inkscape:path-effect
       effect="copy_rotate"
       starting_point="387.22179,105.66516"
       origin="336.80553,105.66516"
       id="path-effect1798"
       is_visible="true"
       lpeversion="1"
       method="fuse_paths"
       num_copies="4"
       starting_angle="0"
       rotation_angle="90"
       gap="0.37"
       copies_to_360="true"
       mirror_copies="false"
       split_items="false" />
  </defs>
  <sodipodi:namedview
     pagecolor="#ffffff"
     bordercolor="#666666"
     borderopacity="1"
     objecttolerance="10"
     gridtolerance="10"
     guidetolerance="10"
     inkscape:pageopacity="0"
     inkscape:pageshadow="2"
     inkscape:window-width="1918"
     inkscape:window-height="1059"
     id="namedview941"
     showgrid="false"
     inkscape:zoom="1.2304572"
     inkscape:cx="211.55926"
     inkscape:cy="320.70483"
     inkscape:window-x="0"
     inkscape:window-y="19"
     inkscape:window-maximized="0"
     inkscape:current-layer="layer1"
     fit-margin-top="0"
     fit-margin-left="0"
     fit-margin-right="0"
     fit-margin-bottom="0" />
  <g
     inkscape:groupmode="layer"
     id="layer1"
     inkscape:label="Underlayer"
     style="display:inline"
     transform="translate(-769.67035,-179.74615)">
    <rect
       style="fill:#363d52;fill-opacity:1;stroke:#1f2531;stroke-width:10;stroke-miterlimit:4;stroke-dasharray:none;stroke-dashoffset:0;stroke-opacity:0.984314"
       id="rect2332"
       width="584.26947"
       height="584.29608"
       x="774.67035"
       y="184.74615"
       ry="70.439545" />
    <circle
       style="fill:#ffffff;fill-opacity:1;stroke-width:2.00003"
       id="circle1520"
       cx="1066.67"
       cy="497.10556"
       r="210.89363" />
  </g>
  <g
     inkscape:groupmode="layer"
     inkscape:label="Symbol"
     id="g947"
     transform="translate(-769.67035,-179.74615)">
    <g
       id="g2166"
       style="stroke:none;stroke-width:5;stroke-miterlimit:4;stroke-dasharray:none;stroke-opacity:1"
       transform="matrix(0.85119717,0,0,0.85119717,249.65583,39.295933)">
      <path
         id="path1512"
         style="fill:#478cbf;fill-opacity:1;stroke:none;stroke-width:5;stroke-miterlimit:4;stroke-dasharray:none;stroke-opacity:1"
         d="m 904.58984,243.36914 -64.39843,20.23438 0.97851,56.84765 c -16.63731,9.09316 -32.17586,20.06602 -46.31054,32.70313 l -53.85547,-20.17774 -40.33399,54.12696 34.67774,46.26953 c -15.22191,32.72834 -23.10896,68.38739 -23.10938,104.48242 -5.7e-4,129.73774 100.08322,237.50626 229.4668,247.08594 V 628.35156 C 861.24847,619.05988 800.53583,550.93277 800.53516,469.94141 800.53489,381.8713 871.92989,310.47629 960,310.47656 v -20.38281 c 0,0 -0.041,0 -0.041,0 -7.8748,10e-4 -15.74506,0.37803 -23.58398,1.12891 z m 110.82036,0 64.3984,20.23438 -0.9785,56.84765 c 16.6373,9.09316 32.1758,20.06602 46.3105,32.70313 l 53.8555,-20.17774 40.334,54.12696 -34.6778,46.26953 c 15.2219,32.72834 23.109,68.38739 23.1094,104.48242 6e-4,129.73774 -100.0832,237.50626 -229.46678,247.08594 V 628.35156 C 1058.7515,619.05988 1119.4642,550.93277 1119.4648,469.94141 1119.4651,381.8713 1048.0701,310.47629 960,310.47656 v -20.38281 c 0,0 0.041,0 0.041,0 7.8748,10e-4 15.74506,0.37803 23.58398,1.12891 z" />
      <circle
         style="fill:#478cbf;fill-opacity:1;stroke:none;stroke-width:5;stroke-miterlimit:4;stroke-dasharray:none;stroke-opacity:1"
         id="circle1514"
         cx="960"
         cy="469.94177"
         r="136.66864" />
    </g>
  </g>
</svg>
